<svg id="Jonathan_Crawford" data-name="Jonathan Crawford" xmlns="http://www.w3.org/2000/svg" viewBox="0 0 1168 256.88"><defs><style>.cls-1{fill:none;}.cls-2{isolation:isolate;}.cls-3{fill:#dfdbdb;}</style></defs><title>logo</title><rect class="cls-1" y="1.88" width="1168" height="255"/><g class="cls-2"><g class="cls-2"><path class="cls-3" d="M22,111.71V94.48H48c5.67,0,8.18-.27,8.18-4.58v-73H77.86v73c0,13.33-8.71,21.81-29.83,21.81Z" transform="translate(32 -16.92)"/><path class="cls-3" d="M128.81,111.71c-21.65,0-29.83-9.29-29.83-22.89v-49c0-13.6,8.18-22.89,29.83-22.89h63c21.65,0,29.83,9.29,29.83,22.89v49c0,13.6-8.18,22.89-29.83,22.89Zm71.28-72.17c0-3.77-2.9-5.52-8.31-5.52h-63c-5.41,0-8.31,1.75-8.31,5.52V89c0,3.9,2.9,5.52,8.31,5.52h63c5.41,0,8.31-1.62,8.31-5.52Z" transform="translate(32 -16.92)"/><path class="cls-3" d="M358.76,111.71,262,42.64v69.07H243.25V16.92h18.62l88.57,64.9V16.92h18.88v94.79Z" transform="translate(32 -16.92)"/><path class="cls-3" d="M497.88,111.71l-45-72.17-45.94,72.17h-24l61.91-94.79h15.84l61.51,94.79Z" transform="translate(32 -16.92)"/><path class="cls-3" d="M554.91,111.71V34H507V16.92H623.42V34H576.56v77.69Z" transform="translate(32 -16.92)"/><path class="cls-3" d="M732.45,111.71V70.24H661.7v41.47H640.18V16.92H661.7V53h70.75V16.92H754.1v94.79Z" transform="translate(32 -16.92)"/><path class="cls-3" d="M882.66,111.71l-45-72.17-45.94,72.17h-24L829.6,16.92h15.84L907,111.71Z" transform="translate(32 -16.92)"/><path class="cls-3" d="M1036.18,111.71,939.42,42.64v69.07H920.68V16.92h18.61l88.57,64.9V16.92h18.88v94.79Z" transform="translate(32 -16.92)"/></g><g class="cls-2"><path class="cls-3" d="M32,257c-21.65,0-29.83-9.29-29.83-22.89v-49c0-13.6,8.18-22.89,29.83-22.89h76.69v17.1H32c-5.41,0-8.32,1.75-8.32,5.52v49.42c0,3.9,2.91,5.52,8.32,5.52h76.69V257Z" transform="translate(32 -16.92)"/><path class="cls-3" d="M215.2,257l-20.72-42.14H150.13V257H128.61V162.17H209.4c21.64,0,30,9.29,30,22.89v6.87c0,11.31-5.28,20.33-21.91,22.62L238.3,257Zm2.51-72.17c0-3.77-2.9-5.52-8.31-5.52H150.13v18.45H209.4c5.67,0,8.31-1.08,8.31-5.66Z" transform="translate(32 -16.92)"/><path class="cls-3" d="M364.89,257l-45-72.17L273.94,257h-24l61.91-94.79h15.84L389.18,257Z" transform="translate(32 -16.92)"/><path class="cls-3" d="M495.57,257l-30.75-67.73L433,257H417.29l-43.16-94.79h20.72l30.5,67.73,31.28-67.73h16.11l30.75,67.73,30.89-67.73h20.86L511.81,257Z" transform="translate(32 -16.92)"/><path class="cls-3" d="M590.34,219.39V257H568.83V162.17h97.94v17.1H590.34v23h71v17.1Z" transform="translate(32 -16.92)"/><path class="cls-3" d="M710.46,257c-21.65,0-29.83-9.29-29.83-22.89v-49c0-13.6,8.18-22.89,29.83-22.89h63c21.65,0,29.83,9.29,29.83,22.89v49c0,13.6-8.18,22.89-29.83,22.89Zm71.28-72.17c0-3.77-2.9-5.52-8.31-5.52h-63c-5.41,0-8.31,1.75-8.31,5.52v49.42c0,3.9,2.9,5.52,8.31,5.52h63c5.41,0,8.31-1.62,8.31-5.52Z" transform="translate(32 -16.92)"/><path class="cls-3" d="M911.5,257l-20.72-42.14H846.42V257H824.91V162.17h80.78c21.65,0,30,9.29,30,22.89v6.87c0,11.31-5.28,20.33-21.92,22.62L934.6,257ZM914,184.79c0-3.77-2.91-5.52-8.32-5.52H846.42v18.45h59.27c5.68,0,8.32-1.08,8.32-5.66Z" transform="translate(32 -16.92)"/><path class="cls-3" d="M954.79,257V162.17h87.26c26.93,0,35.11,9.29,35.11,28V229.9c0,17.77-8.18,27.06-35.11,27.06Zm100.72-66.78c0-9.29-2.77-10.91-13.46-10.91H976.31v60.46h65.74c10.69,0,13.46-1.62,13.46-10.1Z" transform="translate(32 -16.92)"/></g></g></svg>
